{
    "asset" : {
        "generator" : "Khronos glTF Blender I/O v1.2.75",
        "version" : "2.0"
    },
    "scene" : 0,
    "scenes" : [
        {
            "name" : "Scene",
            "nodes" : [
                0
            ]
        }
    ],
    "nodes" : [
        {
            "mesh" : 0,
            "name" : "ShiNei_uv",
            "rotation" : [
                0.7071068286895752,
                0,
                0,
                0.7071067094802856
            ]
        }
    ],
    "materials" : [
        {
            "doubleSided" : true,
            "emissiveFactor" : [
                0,
                0,
                0
            ],
            "name" : "testMaterial",
            "pbrMetallicRoughness" : {
                "baseColorFactor" : [
                    0.08169885724782944,
                    0.08169885724782944,
                    0.08169885724782944,
                    1
                ],
                "metallicFactor" : 0,
                "roughnessFactor" : 0.37272727489471436
            }
        }
    ],
    "meshes" : [
        {
            "name" : "ShiNei_uv",
            "primitives" : [
                {
                    "attributes" : {
                        "POSITION" : 0,
                        "NORMAL" : 1,
                        "TEXCOORD_0" : 2
                    },
                    "indices" : 3,
                    "material" : 0
                }
            ]
        }
    ],
    "accessors" : [
        {
            "bufferView" : 0,
            "componentType" : 5126,
            "count" : 1848,
            "max" : [
                22.180627822875977,
                26.553577423095703,
                -1.43258798122406
            ],
            "min" : [
                -27.763687133789062,
                -26.239683151245117,
                -19.478233337402344
            ],
            "type" : "VEC3"
        },
        {
            "bufferView" : 1,
            "componentType" : 5126,
            "count" : 1848,
            "type" : "VEC3"
        },
        {
            "bufferView" : 2,
            "componentType" : 5126,
            "count" : 1848,
            "type" : "VEC2"
        },
        {
            "bufferView" : 3,
            "componentType" : 5123,
            "count" : 2754,
            "type" : "SCALAR"
        }
    ],
    "bufferViews" : [
        {
            "buffer" : 0,
            "byteLength" : 22176,
            "byteOffset" : 0
        },
        {
            "buffer" : 0,
            "byteLength" : 22176,
            "byteOffset" : 22176
        },
        {
            "buffer" : 0,
            "byteLength" : 14784,
            "byteOffset" : 44352
        },
        {
            "buffer" : 0,
            "byteLength" : 5508,
            "byteOffset" : 59136
        }
    ],
    "buffers" : [
        {
            "byteLength" : 64644,
            "uri" : "ShiNei.bin"
        }
    ]
}
