{
  "accessors": [
    {
      "bufferView": 2,
      "componentType": 5126,
      "count": 1677,
      "max": [
        0.13104000687599182,
        0.83032000064849854,
        1.5928800106048584
      ],
      "min": [
        -0.037879999727010727,
        -0.83032000064849854,
        -1.4307099580764771
      ],
      "type": "VEC3"
    },
    {
      "bufferView": 2,
      "byteOffset": 20124,
      "componentType": 5126,
      "count": 1677,
      "max": [
        1,
        1,
        1
      ],
      "min": [
        -1,
        -1,
        -1
      ],
      "type": "VEC3"
    },
    {
      "bufferView": 3,
      "componentType": 5126,
      "count": 1677,
      "max": [
        1,
        1,
        1,
        1
      ],
      "min": [
        -1,
        -1,
        -1,
        1
      ],
      "type": "VEC4"
    },
    {
      "bufferView": 1,
      "componentType": 5126,
      "count": 1677,
      "max": [
        1,
        1
      ],
      "min": [
        0,
        0
      ],
      "type": "VEC2"
    },
    {
      "bufferView": 0,
      "componentType": 5125,
      "count": 6972,
      "max": [
        1676
      ],
      "min": [
        0
      ],
      "type": "SCALAR"
    },
    {
      "bufferView": 2,
      "byteOffset": 40248,
      "componentType": 5126,
      "count": 2139,
      "max": [
        0.76200002431869507,
        0.53339999914169312,
        0.017759999260306358
      ],
      "min": [
        -1.7211999893188477,
        -0.58586001396179199,
        -1.2645699977874756
      ],
      "type": "VEC3"
    },
    {
      "bufferView": 2,
      "byteOffset": 65916,
      "componentType": 5126,
      "count": 2139,
      "max": [
        1,
        1,
        1
      ],
      "min": [
        -1,
        -1,
        -1
      ],
      "type": "VEC3"
    },
    {
      "bufferView": 3,
      "byteOffset": 26832,
      "componentType": 5126,
      "count": 2139,
      "max": [
        1,
        1,
        0.99999922513961792,
        1
      ],
      "min": [
        -1,
        -1,
        -0.99999618530273438,
        1
      ],
      "type": "VEC4"
    },
    {
      "bufferView": 1,
      "byteOffset": 13416,
      "componentType": 5126,
      "count": 2139,
      "max": [
        1,
        1
      ],
      "min": [
        0,
        0
      ],
      "type": "VEC2"
    },
    {
      "bufferView": 0,
      "byteOffset": 27888,
      "componentType": 5125,
      "count": 9210,
      "max": [
        2138
      ],
      "min": [
        0
      ],
      "type": "SCALAR"
    },
    {
      "bufferView": 2,
      "byteOffset": 91584,
      "componentType": 5126,
      "count": 144,
      "max": [
        3.1493000984191895,
        3.136120080947876,
        4.0244498252868652
      ],
      "min": [
        -3.011699914932251,
        -3.011699914932251,
        0
      ],
      "type": "VEC3"
    },
    {
      "bufferView": 2,
      "byteOffset": 93312,
      "componentType": 5126,
      "count": 144,
      "max": [
        1,
        1,
        1
      ],
      "min": [
        -1,
        -1,
        -1
      ],
      "type": "VEC3"
    },
    {
      "bufferView": 3,
      "byteOffset": 61056,
      "componentType": 5126,
      "count": 144,
      "max": [
        1,
        1,
        1,
        1
      ],
      "min": [
        -1,
        -1,
        -1,
        -1
      ],
      "type": "VEC4"
    },
    {
      "bufferView": 1,
      "byteOffset": 30528,
      "componentType": 5126,
      "count": 144,
      "max": [
        1,
        1
      ],
      "min": [
        0,
        0
      ],
      "type": "VEC2"
    },
    {
      "bufferView": 0,
      "byteOffset": 64728,
      "componentType": 5125,
      "count": 312,
      "max": [
        143
      ],
      "min": [
        0
      ],
      "type": "SCALAR"
    },
    {
      "bufferView": 2,
      "byteOffset": 95040,
      "componentType": 5126,
      "count": 3890,
      "max": [
        0.43623998761177063,
        0.24081000685691833,
        0.078780002892017365
      ],
      "min": [
        -0.43623998761177063,
        -0.42331999540328979,
        -0.19426000118255615
      ],
      "type": "VEC3"
    },
    {
      "bufferView": 2,
      "byteOffset": 141720,
      "componentType": 5126,
      "count": 3890,
      "max": [
        1,
        1,
        1
      ],
      "min": [
        -1,
        -1,
        -1
      ],
      "type": "VEC3"
    },
    {
      "bufferView": 3,
      "byteOffset": 63360,
      "componentType": 5126,
      "count": 3890,
      "max": [
        1,
        1,
        0.99999433755874634,
        1
      ],
      "min": [
        -1,
        -1,
        -0.99999761581420898,
        -1
      ],
      "type": "VEC4"
    },
    {
      "bufferView": 1,
      "byteOffset": 31680,
      "componentType": 5126,
      "count": 3890,
      "max": [
        1,
        1
      ],
      "min": [
        0,
        0
      ],
      "type": "VEC2"
    },
    {
      "bufferView": 0,
      "byteOffset": 65976,
      "componentType": 5125,
      "count": 16248,
      "max": [
        3889
      ],
      "min": [
        0
      ],
      "type": "SCALAR"
    },
    {
      "bufferView": 2,
      "byteOffset": 188400,
      "componentType": 5126,
      "count": 36143,
      "max": [
        0.082149997353553772,
        0.26129001379013062,
        0.28731000423431396
      ],
      "min": [
        -0.19454999268054962,
        -0.24775999784469604,
        -0.30976998805999756
      ],
      "type": "VEC3"
    },
    {
      "bufferView": 2,
      "byteOffset": 622116,
      "componentType": 5126,
      "count": 36143,
      "max": [
        1,
        1,
        1
      ],
      "min": [
        -1,
        -1,
        -1
      ],
      "type": "VEC3"
    },
    {
      "bufferView": 3,
      "byteOffset": 125600,
      "componentType": 5126,
      "count": 36143,
      "max": [
        1,
        1,
        1,
        1
      ],
      "min": [
        -1,
        -1,
        -1,
        -1
      ],
      "type": "VEC4"
    },
    {
      "bufferView": 1,
      "byteOffset": 62800,
      "componentType": 5126,
      "count": 36143,
      "max": [
        1,
        1
      ],
      "min": [
        0,
        0
      ],
      "type": "VEC2"
    },
    {
      "bufferView": 0,
      "byteOffset": 130968,
      "componentType": 5125,
      "count": 132702,
      "max": [
        36142
      ],
      "min": [
        0
      ],
      "type": "SCALAR"
    },
    {
      "bufferView": 2,
      "byteOffset": 1055832,
      "componentType": 5126,
      "count": 10142,
      "max": [
        0.6753000020980835,
        0.97064000368118286,
        0.53051000833511353
      ],
      "min": [
        -0.57551002502441406,
        -0.25960001349449158,
        -0.97747999429702759
      ],
      "type": "VEC3"
    },
    {
      "bufferView": 2,
      "byteOffset": 1177536,
      "componentType": 5126,
      "count": 10142,
      "max": [
        1,
        1,
        1
      ],
      "min": [
        -1,
        -1,
        -1
      ],
      "type": "VEC3"
    },
    {
      "bufferView": 3,
      "byteOffset": 703888,
      "componentType": 5126,
      "count": 10142,
      "max": [
        1,
        1,
        1,
        1
      ],
      "min": [
        -1,
        -1,
        -1,
        -1
      ],
      "type": "VEC4"
    },
    {
      "bufferView": 1,
      "byteOffset": 351944,
      "componentType": 5126,
      "count": 10142,
      "max": [
        1,
        1
      ],
      "min": [
        0,
        0
      ],
      "type": "VEC2"
    },
    {
      "bufferView": 0,
      "byteOffset": 661776,
      "componentType": 5125,
      "count": 29418,
      "max": [
        10141
      ],
      "min": [
        0
      ],
      "type": "SCALAR"
    },
    {
      "bufferView": 2,
      "byteOffset": 1299240,
      "componentType": 5126,
      "count": 8,
      "max": [
        0.30480000376701355,
        0.30480000376701355,
        0.58039999008178711
      ],
      "min": [
        -0.30480000376701355,
        -0.30480000376701355,
        0
      ],
      "type": "VEC3"
    },
    {
      "bufferView": 2,
      "byteOffset": 1299336,
      "componentType": 5126,
      "count": 8,
      "max": [
        0,
        0,
        1
      ],
      "min": [
        -1,
        0,
        -0
      ],
      "type": "VEC3"
    },
    {
      "bufferView": 0,
      "byteOffset": 779448,
      "componentType": 5125,
      "count": 12,
      "max": [
        7
      ],
      "min": [
        0
      ],
      "type": "SCALAR"
    },
    {
      "bufferView": 2,
      "byteOffset": 1299432,
      "componentType": 5126,
      "count": 36529,
      "max": [
        0.16151000559329987,
        1.960379958152771,
        0.29071000218391418
      ],
      "min": [
        -2.5017199516296387,
        -0.48015999794006348,
        -0.019099999219179153
      ],
      "type": "VEC3"
    },
    {
      "bufferView": 2,
      "byteOffset": 1737780,
      "componentType": 5126,
      "count": 36529,
      "max": [
        1,
        1,
        1
      ],
      "min": [
        -1,
        -1,
        -1
      ],
      "type": "VEC3"
    },
    {
      "bufferView": 3,
      "byteOffset": 866160,
      "componentType": 5126,
      "count": 36529,
      "max": [
        1,
        1,
        1,
        1
      ],
      "min": [
        -1,
        -1,
        -1,
        -1
      ],
      "type": "VEC4"
    },
    {
      "bufferView": 1,
      "byteOffset": 433080,
      "componentType": 5126,
      "count": 36529,
      "max": [
        1,
        1
      ],
      "min": [
        0,
        0
      ],
      "type": "VEC2"
    },
    {
      "bufferView": 0,
      "byteOffset": 779496,
      "componentType": 5125,
      "count": 76110,
      "max": [
        36528
      ],
      "min": [
        0
      ],
      "type": "SCALAR"
    },
    {
      "bufferView": 2,
      "byteOffset": 2176128,
      "componentType": 5126,
      "count": 23735,
      "max": [
        1.9010499715805054,
        0.21294000744819641,
        1.3487600088119507
      ],
      "min": [
        -0.21294000744819641,
        -1.1169799566268921,
        -0.21872000396251678
      ],
      "type": "VEC3"
    },
    {
      "bufferView": 2,
      "byteOffset": 2460948,
      "componentType": 5126,
      "count": 23735,
      "max": [
        1,
        1,
        1
      ],
      "min": [
        -1,
        -1,
        -1
      ],
      "type": "VEC3"
    },
    {
      "bufferView": 3,
      "byteOffset": 1450624,
      "componentType": 5126,
      "count": 23735,
      "max": [
        0.99999988079071045,
        0.99998509883880615,
        0.99999994039535522,
        1
      ],
      "min": [
        -0.99999988079071045,
        -1,
        -1,
        -1
      ],
      "type": "VEC4"
    },
    {
      "bufferView": 1,
      "byteOffset": 725312,
      "componentType": 5126,
      "count": 23735,
      "max": [
        1,
        1
      ],
      "min": [
        0,
        0
      ],
      "type": "VEC2"
    },
    {
      "bufferView": 0,
      "byteOffset": 1083936,
      "componentType": 5125,
      "count": 104388,
      "max": [
        23734
      ],
      "min": [
        0
      ],
      "type": "SCALAR"
    }
  ],
  "asset": {
    "extras": {
      "author": "fizzlefreshh (https://sketchfab.com/fizzlefreshh)",
      "license": "CC-BY-4.0 (http://creativecommons.org/licenses/by/4.0/)",
      "source": "https://sketchfab.com/models/3651ffe6b9f14ceeb0f33f20d3e89a2b",
      "title": "Office - Blender Cycles Bake"
    },
    "generator": "Sketchfab-3.18.5",
    "version": "2.0"
  },
  "bufferViews": [
    {
      "buffer": 0,
      "byteLength": 1501488,
      "byteOffset": 0,
      "name": "floatBufferViews",
      "target": 34963
    },
    {
      "buffer": 0,
      "byteLength": 915192,
      "byteOffset": 1501488,
      "byteStride": 8,
      "name": "floatBufferViews",
      "target": 34962
    },
    {
      "buffer": 0,
      "byteLength": 2745768,
      "byteOffset": 2416680,
      "byteStride": 12,
      "name": "floatBufferViews",
      "target": 34962
    },
    {
      "buffer": 0,
      "byteLength": 1830384,
      "byteOffset": 5162448,
      "byteStride": 16,
      "name": "floatBufferViews",
      "target": 34962
    }
  ],
  "buffers": [
    {
      "byteLength": 6992832,
      "uri": "scene.bin"
    }
  ],
  "extensionsUsed": [
    "KHR_materials_unlit"
  ],
  "images": [
    {
      "uri": "textures/plants_bake_baseColor.png"
    },
    {
      "uri": "textures/walls_msall_baked_baseColor.png"
    },
    {
      "uri": "textures/desk_baked_baseColor.png"
    },
    {
      "uri": "textures/computer_bake_baseColor.png"
    },
    {
      "uri": "textures/keyboard_plus_baked_baseColor.png"
    },
    {
      "uri": "textures/monitor_bake_baseColor.png"
    },
    {
      "uri": "textures/chair_headphone_bin_baked_baseColor.png"
    },
    {
      "uri": "textures/door_bake_baseColor.png"
    }
  ],
  "materials": [
    {
      "doubleSided": true,
      "emissiveFactor": [
        0,
        0,
        0
      ],
      "extensions": {
        "KHR_materials_unlit": {}
      },
      "name": "chair_headphone_bin_baked",
      "pbrMetallicRoughness": {
        "baseColorFactor": [
          1,
          1,
          1,
          1
        ],
        "baseColorTexture": {
          "index": 6,
          "texCoord": 0
        },
        "metallicFactor": 0,
        "roughnessFactor": 1
      }
    },
    {
      "doubleSided": true,
      "emissiveFactor": [
        0,
        0,
        0
      ],
      "extensions": {
        "KHR_materials_unlit": {}
      },
      "name": "plants_bake",
      "pbrMetallicRoughness": {
        "baseColorFactor": [
          1,
          1,
          1,
          1
        ],
        "baseColorTexture": {
          "index": 0,
          "texCoord": 0
        },
        "metallicFactor": 0,
        "roughnessFactor": 1
      }
    },
    {
      "doubleSided": true,
      "emissiveFactor": [
        0.40000000595000001,
        0.40000000595000001,
        0.40000000595000001
      ],
      "extensions": {
        "KHR_materials_unlit": {}
      },
      "name": "emit_white",
      "pbrMetallicRoughness": {
        "baseColorFactor": [
          1,
          1,
          1,
          1
        ],
        "metallicFactor": 0,
        "roughnessFactor": 1
      }
    },
    {
      "doubleSided": true,
      "emissiveFactor": [
        0,
        0,
        0
      ],
      "extensions": {
        "KHR_materials_unlit": {}
      },
      "name": "keyboard_plus_baked",
      "pbrMetallicRoughness": {
        "baseColorFactor": [
          1,
          1,
          1,
          1
        ],
        "baseColorTexture": {
          "index": 4,
          "texCoord": 0
        },
        "metallicFactor": 0,
        "roughnessFactor": 1
      }
    },
    {
      "doubleSided": true,
      "emissiveFactor": [
        0,
        0,
        0
      ],
      "extensions": {
        "KHR_materials_unlit": {}
      },
      "name": "computer_bake",
      "pbrMetallicRoughness": {
        "baseColorFactor": [
          1,
          1,
          1,
          1
        ],
        "baseColorTexture": {
          "index": 3,
          "texCoord": 0
        },
        "metallicFactor": 0,
        "roughnessFactor": 1
      }
    },
    {
      "doubleSided": true,
      "emissiveFactor": [
        0,
        0,
        0
      ],
      "extensions": {
        "KHR_materials_unlit": {}
      },
      "name": "monitor_bake",
      "pbrMetallicRoughness": {
        "baseColorFactor": [
          1,
          1,
          1,
          1
        ],
        "baseColorTexture": {
          "index": 5,
          "texCoord": 0
        },
        "metallicFactor": 0,
        "roughnessFactor": 1
      }
    },
    {
      "doubleSided": true,
      "emissiveFactor": [
        0,
        0,
        0
      ],
      "extensions": {
        "KHR_materials_unlit": {}
      },
      "name": "walls_msall_baked",
      "pbrMetallicRoughness": {
        "baseColorFactor": [
          1,
          1,
          1,
          1
        ],
        "baseColorTexture": {
          "index": 1,
          "texCoord": 0
        },
        "metallicFactor": 0,
        "roughnessFactor": 1
      }
    },
    {
      "doubleSided": true,
      "emissiveFactor": [
        0,
        0,
        0
      ],
      "extensions": {
        "KHR_materials_unlit": {}
      },
      "name": "desk_baked",
      "pbrMetallicRoughness": {
        "baseColorFactor": [
          1,
          1,
          1,
          1
        ],
        "baseColorTexture": {
          "index": 2,
          "texCoord": 0
        },
        "metallicFactor": 0,
        "roughnessFactor": 1
      }
    },
    {
      "doubleSided": true,
      "emissiveFactor": [
        0,
        0,
        0
      ],
      "extensions": {
        "KHR_materials_unlit": {}
      },
      "name": "door_bake",
      "pbrMetallicRoughness": {
        "baseColorFactor": [
          1,
          1,
          1,
          1
        ],
        "baseColorTexture": {
          "index": 7,
          "texCoord": 0
        },
        "metallicFactor": 0,
        "roughnessFactor": 1
      }
    }
  ],
  "meshes": [
    {
      "name": "door2_0",
      "primitives": [
        {
          "attributes": {
            "NORMAL": 1,
            "POSITION": 0,
            "TANGENT": 2,
            "TEXCOORD_0": 3
          },
          "indices": 4,
          "material": 8,
          "mode": 4
        }
      ]
    },
    {
      "name": "Cube_0",
      "primitives": [
        {
          "attributes": {
            "NORMAL": 6,
            "POSITION": 5,
            "TANGENT": 7,
            "TEXCOORD_0": 8
          },
          "indices": 9,
          "material": 7,
          "mode": 4
        }
      ]
    },
    {
      "name": "Plane_0",
      "primitives": [
        {
          "attributes": {
            "NORMAL": 11,
            "POSITION": 10,
            "TANGENT": 12,
            "TEXCOORD_0": 13
          },
          "indices": 14,
          "material": 6,
          "mode": 4
        }
      ]
    },
    {
      "name": "Cube.006_0",
      "primitives": [
        {
          "attributes": {
            "NORMAL": 16,
            "POSITION": 15,
            "TANGENT": 17,
            "TEXCOORD_0": 18
          },
          "indices": 19,
          "material": 5,
          "mode": 4
        }
      ]
    },
    {
      "name": "Cube.009_0",
      "primitives": [
        {
          "attributes": {
            "NORMAL": 21,
            "POSITION": 20,
            "TANGENT": 22,
            "TEXCOORD_0": 23
          },
          "indices": 24,
          "material": 4,
          "mode": 4
        }
      ]
    },
    {
      "name": "Cube.024_0",
      "primitives": [
        {
          "attributes": {
            "NORMAL": 26,
            "POSITION": 25,
            "TANGENT": 27,
            "TEXCOORD_0": 28
          },
          "indices": 29,
          "material": 3,
          "mode": 4
        }
      ]
    },
    {
      "name": "Plane.008_0",
      "primitives": [
        {
          "attributes": {
            "NORMAL": 31,
            "POSITION": 30
          },
          "indices": 32,
          "material": 2,
          "mode": 4
        }
      ]
    },
    {
      "name": "Cube.036_0",
      "primitives": [
        {
          "attributes": {
            "NORMAL": 34,
            "POSITION": 33,
            "TANGENT": 35,
            "TEXCOORD_0": 36
          },
          "indices": 37,
          "material": 1,
          "mode": 4
        }
      ]
    },
    {
      "name": "Cylinder_0",
      "primitives": [
        {
          "attributes": {
            "NORMAL": 39,
            "POSITION": 38,
            "TANGENT": 40,
            "TEXCOORD_0": 41
          },
          "indices": 42,
          "material": 0,
          "mode": 4
        }
      ]
    }
  ],
  "nodes": [
    {
      "children": [
        1
      ],
      "name": "RootNode (gltf orientation matrix)",
      "rotation": [
        -0.70710678118654746,
        -0,
        -0,
        0.70710678118654757
      ]
    },
    {
      "children": [
        2
      ],
      "name": "RootNode (model correction matrix)"
    },
    {
      "children": [
        3,
        5,
        7,
        9,
        11,
        13,
        15,
        17,
        19
      ],
      "name": "Root"
    },
    {
      "children": [
        4
      ],
      "matrix": [
        -1,
        -0,
        0,
        0,
        0,
        -1,
        0,
        0,
        0,
        0,
        1,
        0,
        2.5722399999999994,
        -4.2220999999999993,
        1.4079499999999998,
        1
      ],
      "name": "door2"
    },
    {
      "mesh": 0,
      "name": "door2_0"
    },
    {
      "children": [
        6
      ],
      "matrix": [
        1,
        0,
        0,
        0,
        0,
        1,
        0,
        0,
        0,
        0,
        1,
        0,
        0,
        0,
        1.2876899999999998,
        1
      ],
      "name": "Cube"
    },
    {
      "mesh": 1,
      "name": "Cube_0"
    },
    {
      "children": [
        8
      ],
      "matrix": [
        1,
        0,
        0,
        0,
        0,
        1,
        0,
        0,
        0,
        0,
        1,
        0,
        -0.39795000000000008,
        -2.2736800000000001,
        0.021360000000000007,
        1
      ],
      "name": "Plane"
    },
    {
      "mesh": 2,
      "name": "Plane_0"
    },
    {
      "children": [
        10
      ],
      "matrix": [
        1,
        0,
        0,
        0,
        0,
        0.12014000000000001,
        0.99275999999999998,
        0,
        0,
        -0.99275999999999998,
        0.12014000000000001,
        0,
        -0.49261000000000005,
        0.052190000000000014,
        1.71912,
        1
      ],
      "name": "Cube.006"
    },
    {
      "mesh": 3,
      "name": "Cube.006_0"
    },
    {
      "children": [
        12
      ],
      "matrix": [
        1,
        0,
        0,
        0,
        0,
        1,
        0,
        0,
        0,
        0,
        1,
        0,
        0.31063000000000002,
        -0.0062400000000000016,
        1.6165800000000001,
        1
      ],
      "name": "Cube.009"
    },
    {
      "mesh": 4,
      "name": "Cube.009_0"
    },
    {
      "children": [
        14
      ],
      "matrix": [
        1,
        0,
        0,
        0,
        0,
        1,
        0,
        0,
        0,
        0,
        1,
        0,
        -0.34219000000000005,
        -0.22922000000000003,
        1.3134199999999998,
        1
      ],
      "name": "Cube.024"
    },
    {
      "mesh": 5,
      "name": "Cube.024_0"
    },
    {
      "children": [
        16
      ],
      "matrix": [
        7.5435600000000003,
        0,
        0,
        0,
        0,
        -0,
        7.5435600000000003,
        0,
        0,
        -7.5435600000000003,
        -0,
        0,
        0.73039000000000009,
        1.06677,
        1.86537,
        1
      ],
      "name": "Plane.008"
    },
    {
      "mesh": 6,
      "name": "Plane.008_0"
    },
    {
      "children": [
        18
      ],
      "matrix": [
        1,
        0,
        0,
        0,
        0,
        1,
        0,
        0,
        0,
        0,
        1,
        0,
        2.6077200000000005,
        -1.0896699999999999,
        1.4020599999999999,
        1
      ],
      "name": "Cube.036"
    },
    {
      "mesh": 7,
      "name": "Cube.036_0"
    },
    {
      "children": [
        20
      ],
      "matrix": [
        1,
        0,
        0,
        0,
        0,
        1,
        0,
        0,
        0,
        0,
        1,
        0,
        -1.9911899999999998,
        0.041530000000000011,
        0.23285,
        1
      ],
      "name": "Cylinder"
    },
    {
      "mesh": 8,
      "name": "Cylinder_0"
    }
  ],
  "samplers": [
    {
      "magFilter": 9729,
      "minFilter": 9987,
      "wrapS": 10497,
      "wrapT": 10497
    }
  ],
  "scene": 0,
  "scenes": [
    {
      "name": "OSG_Scene",
      "nodes": [
        0
      ]
    }
  ],
  "textures": [
    {
      "sampler": 0,
      "source": 0
    },
    {
      "sampler": 0,
      "source": 1
    },
    {
      "sampler": 0,
      "source": 2
    },
    {
      "sampler": 0,
      "source": 3
    },
    {
      "sampler": 0,
      "source": 4
    },
    {
      "sampler": 0,
      "source": 5
    },
    {
      "sampler": 0,
      "source": 6
    },
    {
      "sampler": 0,
      "source": 7
    }
  ]
}

