{
  "accessors": [
    {
      "bufferView": 2,
      "componentType": 5126,
      "count": 489,
      "max": [
        0.59269297122955322,
        0.21127499639987946,
        0.82273602485656738
      ],
      "min": [
        0.1916549950838089,
        -0.35985100269317627,
        0.77183401584625244
      ],
      "type": "VEC3"
    },
    {
      "bufferView": 2,
      "byteOffset": 5868,
      "componentType": 5126,
      "count": 489,
      "max": [
        1,
        1,
        1
      ],
      "min": [
        -1,
        -1,
        -1
      ],
      "type": "VEC3"
    },
    {
      "bufferView": 3,
      "componentType": 5126,
      "count": 489,
      "max": [
        1,
        0.95208799839019775,
        1,
        1
      ],
      "min": [
        -1,
        -0.95633900165557861,
        -1,
        1
      ],
      "type": "VEC4"
    },
    {
      "bufferView": 1,
      "componentType": 5126,
      "count": 489,
      "max": [
        0.3952069878578186,
        0.99484002590179443
      ],
      "min": [
        0.0082572698593139648,
        0.50350397825241089
      ],
      "type": "VEC2"
    },
    {
      "bufferView": 0,
      "componentType": 5125,
      "count": 1848,
      "max": [
        488
      ],
      "min": [
        0
      ],
      "type": "SCALAR"
    },
    {
      "bufferView": 2,
      "byteOffset": 11736,
      "componentType": 5126,
      "count": 489,
      "max": [
        0.59269297122955322,
        0.21127499639987946,
        -0.79474800825119019
      ],
      "min": [
        0.1916549950838089,
        -0.35985100269317627,
        -0.84565097093582153
      ],
      "type": "VEC3"
    },
    {
      "bufferView": 2,
      "byteOffset": 17604,
      "componentType": 5126,
      "count": 489,
      "max": [
        1,
        1,
        1
      ],
      "min": [
        -1,
        -1,
        -1
      ],
      "type": "VEC3"
    },
    {
      "bufferView": 3,
      "byteOffset": 7824,
      "componentType": 5126,
      "count": 489,
      "max": [
        1,
        0.95208799839019775,
        1,
        1
      ],
      "min": [
        -1,
        -0.95633900165557861,
        -1,
        1
      ],
      "type": "VEC4"
    },
    {
      "bufferView": 1,
      "byteOffset": 3912,
      "componentType": 5126,
      "count": 489,
      "max": [
        0.3952069878578186,
        0.99484002590179443
      ],
      "min": [
        0.0082572698593139648,
        0.50350397825241089
      ],
      "type": "VEC2"
    },
    {
      "bufferView": 0,
      "byteOffset": 7392,
      "componentType": 5125,
      "count": 1848,
      "max": [
        488
      ],
      "min": [
        0
      ],
      "type": "SCALAR"
    },
    {
      "bufferView": 2,
      "byteOffset": 23472,
      "componentType": 5126,
      "count": 10274,
      "max": [
        -0.12266699969768524,
        -0.040001101791858673,
        0.80210000276565552
      ],
      "min": [
        -0.60535800457000732,
        -0.30651700496673584,
        -0.8029099702835083
      ],
      "type": "VEC3"
    },
    {
      "bufferView": 2,
      "byteOffset": 146760,
      "componentType": 5126,
      "count": 10274,
      "max": [
        1,
        1,
        1
      ],
      "min": [
        -1,
        -1,
        -1
      ],
      "type": "VEC3"
    },
    {
      "bufferView": 3,
      "byteOffset": 15648,
      "componentType": 5126,
      "count": 10274,
      "max": [
        0.99999701976776123,
        1,
        1,
        1
      ],
      "min": [
        -0.99999397993087769,
        -0.99799597263336182,
        -1,
        1
      ],
      "type": "VEC4"
    },
    {
      "bufferView": 1,
      "byteOffset": 7824,
      "componentType": 5126,
      "count": 10274,
      "max": [
        0.68799102306365967,
        0.69981998205184937
      ],
      "min": [
        0.29002898931503296,
        0.34324300289154053
      ],
      "type": "VEC2"
    },
    {
      "bufferView": 0,
      "byteOffset": 14784,
      "componentType": 5125,
      "count": 42024,
      "max": [
        10273
      ],
      "min": [
        0
      ],
      "type": "SCALAR"
    },
    {
      "bufferView": 2,
      "byteOffset": 270048,
      "componentType": 5126,
      "count": 1708,
      "max": [
        0.2248850017786026,
        0.2282319962978363,
        -0.22979800403118134
      ],
      "min": [
        0.16389699280261993,
        -0.29104799032211304,
        -0.70233297348022461
      ],
      "type": "VEC3"
    },
    {
      "bufferView": 2,
      "byteOffset": 290544,
      "componentType": 5126,
      "count": 1708,
      "max": [
        1,
        1,
        1
      ],
      "min": [
        -1,
        -1,
        -1
      ],
      "type": "VEC3"
    },
    {
      "bufferView": 3,
      "byteOffset": 180032,
      "componentType": 5126,
      "count": 1708,
      "max": [
        1,
        1,
        1,
        1
      ],
      "min": [
        -1,
        -1,
        -1,
        1
      ],
      "type": "VEC4"
    },
    {
      "bufferView": 1,
      "byteOffset": 90016,
      "componentType": 5126,
      "count": 1708,
      "max": [
        0.74811297655105591,
        0.74811702966690063
      ],
      "min": [
        0.25188198685646057,
        0.25188300013542175
      ],
      "type": "VEC2"
    },
    {
      "bufferView": 0,
      "byteOffset": 182880,
      "componentType": 5125,
      "count": 5598,
      "max": [
        1707
      ],
      "min": [
        0
      ],
      "type": "SCALAR"
    },
    {
      "bufferView": 2,
      "byteOffset": 311040,
      "componentType": 5126,
      "count": 986,
      "max": [
        0.66544002294540405,
        0.38168999552726746,
        1
      ],
      "min": [
        -0.66544002294540405,
        -0.32315200567245483,
        -1
      ],
      "type": "VEC3"
    },
    {
      "bufferView": 2,
      "byteOffset": 322872,
      "componentType": 5126,
      "count": 986,
      "max": [
        1,
        1,
        1
      ],
      "min": [
        -1,
        -1,
        -1
      ],
      "type": "VEC3"
    },
    {
      "bufferView": 3,
      "byteOffset": 207360,
      "componentType": 5126,
      "count": 986,
      "max": [
        1,
        0.99981898069381714,
        1,
        1
      ],
      "min": [
        -1,
        -0.9998210072517395,
        -1,
        -1
      ],
      "type": "VEC4"
    },
    {
      "bufferView": 1,
      "byteOffset": 103680,
      "componentType": 5126,
      "count": 986,
      "max": [
        1,
        0.74287301301956177
      ],
      "min": [
        0,
        0
      ],
      "type": "VEC2"
    },
    {
      "bufferView": 0,
      "byteOffset": 205272,
      "componentType": 5125,
      "count": 4422,
      "max": [
        985
      ],
      "min": [
        0
      ],
      "type": "SCALAR"
    },
    {
      "bufferView": 2,
      "byteOffset": 334704,
      "componentType": 5126,
      "count": 144,
      "max": [
        -0.60425502061843872,
        0.34327098727226257,
        0.0091140503063797951
      ],
      "min": [
        -0.62534397840499878,
        0.097717300057411194,
        -0.33056101202964783
      ],
      "type": "VEC3"
    },
    {
      "bufferView": 2,
      "byteOffset": 336432,
      "componentType": 5126,
      "count": 144,
      "max": [
        1,
        1,
        1
      ],
      "min": [
        -1,
        -1,
        -1
      ],
      "type": "VEC3"
    },
    {
      "bufferView": 3,
      "byteOffset": 223136,
      "componentType": 5126,
      "count": 144,
      "max": [
        1,
        1,
        1,
        1
      ],
      "min": [
        -1,
        -1,
        -1,
        1
      ],
      "type": "VEC4"
    },
    {
      "bufferView": 1,
      "byteOffset": 111568,
      "componentType": 5126,
      "count": 144,
      "max": [
        0.63286000490188599,
        0.68251800537109375
      ],
      "min": [
        0.4179370105266571,
        0.46190199255943298
      ],
      "type": "VEC2"
    },
    {
      "bufferView": 0,
      "byteOffset": 222960,
      "componentType": 5125,
      "count": 384,
      "max": [
        143
      ],
      "min": [
        0
      ],
      "type": "SCALAR"
    },
    {
      "bufferView": 2,
      "byteOffset": 338160,
      "componentType": 5126,
      "count": 414,
      "max": [
        0.19011400640010834,
        0.40672999620437622,
        0.97050601243972778
      ],
      "min": [
        0.16902400553226471,
        -0.40672999620437622,
        -0.79174000024795532
      ],
      "type": "VEC3"
    },
    {
      "bufferView": 2,
      "byteOffset": 343128,
      "componentType": 5126,
      "count": 414,
      "max": [
        1,
        1,
        1
      ],
      "min": [
        -1,
        -1,
        -1
      ],
      "type": "VEC3"
    },
    {
      "bufferView": 3,
      "byteOffset": 225440,
      "componentType": 5126,
      "count": 414,
      "max": [
        1,
        1,
        1,
        1
      ],
      "min": [
        -1,
        -1,
        -1,
        1
      ],
      "type": "VEC4"
    },
    {
      "bufferView": 1,
      "byteOffset": 112720,
      "componentType": 5126,
      "count": 414,
      "max": [
        0.76463598012924194,
        0.92044198513031006
      ],
      "min": [
        0.15805999934673309,
        0.27798399329185486
      ],
      "type": "VEC2"
    },
    {
      "bufferView": 0,
      "byteOffset": 224496,
      "componentType": 5125,
      "count": 1104,
      "max": [
        413
      ],
      "min": [
        0
      ],
      "type": "SCALAR"
    },
    {
      "bufferView": 2,
      "byteOffset": 348096,
      "componentType": 5126,
      "count": 18,
      "max": [
        0.66543799638748169,
        -0.30371400713920593,
        0.97250598669052124
      ],
      "min": [
        -0.60722202062606812,
        -0.30371400713920593,
        -0.97322499752044678
      ],
      "type": "VEC3"
    },
    {
      "bufferView": 2,
      "byteOffset": 348312,
      "componentType": 5126,
      "count": 18,
      "max": [
        0,
        1,
        1.3861499628936553e-16
      ],
      "min": [
        0,
        1,
        -1.3861499628936553e-16
      ],
      "type": "VEC3"
    },
    {
      "bufferView": 3,
      "byteOffset": 232064,
      "componentType": 5126,
      "count": 18,
      "max": [
        0,
        1.3861499628936553e-16,
        1,
        1
      ],
      "min": [
        -5.4554200046297296e-10,
        -1.3861499628936553e-16,
        1,
        1
      ],
      "type": "VEC4"
    },
    {
      "bufferView": 1,
      "byteOffset": 116032,
      "componentType": 5126,
      "count": 18,
      "max": [
        0.97635799646377563,
        0.78485602140426636
      ],
      "min": [
        0.067058302462100983,
        0.21948599815368652
      ],
      "type": "VEC2"
    },
    {
      "bufferView": 0,
      "byteOffset": 228912,
      "componentType": 5125,
      "count": 60,
      "max": [
        17
      ],
      "min": [
        0
      ],
      "type": "SCALAR"
    }
  ],
  "asset": {
    "extras": {
      "author": "lumoize (https://sketchfab.com/lumoize)",
      "license": "CC-BY-4.0 (http://creativecommons.org/licenses/by/4.0/)",
      "source": "https://sketchfab.com/models/8ebe42e0151a4403aabc429025f5f998",
      "title": "Castle Dungeon"
    },
    "generator": "Sketchfab-3.19.3",
    "version": "2.0"
  },
  "bufferViews": [
    {
      "buffer": 0,
      "byteLength": 229152,
      "byteOffset": 0,
      "name": "floatBufferViews",
      "target": 34963
    },
    {
      "buffer": 0,
      "byteLength": 116176,
      "byteOffset": 229152,
      "byteStride": 8,
      "name": "floatBufferViews",
      "target": 34962
    },
    {
      "buffer": 0,
      "byteLength": 348528,
      "byteOffset": 345328,
      "byteStride": 12,
      "name": "floatBufferViews",
      "target": 34962
    },
    {
      "buffer": 0,
      "byteLength": 232352,
      "byteOffset": 693856,
      "byteStride": 16,
      "name": "floatBufferViews",
      "target": 34962
    }
  ],
  "buffers": [
    {
      "byteLength": 926208,
      "uri": "scene.bin"
    }
  ],
  "images": [
    {
      "uri": "textures/Front_Bars_metallicRoughness.jpg"
    },
    {
      "uri": "textures/Front_Bars_normal.jpg"
    },
    {
      "uri": "textures/Front_Bars_baseColor.jpg"
    },
    {
      "uri": "textures/Entrance_metallicRoughness.jpg"
    },
    {
      "uri": "textures/Entrance_normal.jpg"
    },
    {
      "uri": "textures/Entrance_baseColor.jpg"
    },
    {
      "uri": "textures/Chains_metallicRoughness.jpg"
    },
    {
      "uri": "textures/Chains_normal.jpg"
    },
    {
      "uri": "textures/Chains_baseColor.jpg"
    },
    {
      "uri": "textures/Window_Bars_metallicRoughness.jpg"
    },
    {
      "uri": "textures/Window_Bars_normal.jpg"
    },
    {
      "uri": "textures/Window_Bars_baseColor.jpg"
    },
    {
      "uri": "textures/wALLS_metallicRoughness.jpg"
    },
    {
      "uri": "textures/wALLS_normal.jpg"
    },
    {
      "uri": "textures/wALLS_baseColor.jpg"
    },
    {
      "uri": "textures/Floor_metallicRoughness.jpg"
    },
    {
      "uri": "textures/Floor_normal.jpg"
    },
    {
      "uri": "textures/Floor_baseColor.jpg"
    },
    {
      "uri": "textures/Door_metallicRoughness.jpg"
    },
    {
      "uri": "textures/Door_normal.jpg"
    },
    {
      "uri": "textures/Door_baseColor.jpg"
    }
  ],
  "materials": [
    {
      "doubleSided": true,
      "emissiveFactor": [
        0,
        0,
        0
      ],
      "name": "Floor",
      "normalTexture": {
        "index": 16,
        "scale": 1,
        "texCoord": 0
      },
      "occlusionTexture": {
        "index": 15,
        "strength": 1,
        "texCoord": 0
      },
      "pbrMetallicRoughness": {
        "baseColorFactor": [
          1,
          1,
          1,
          1
        ],
        "baseColorTexture": {
          "index": 17,
          "texCoord": 0
        },
        "metallicFactor": 1,
        "metallicRoughnessTexture": {
          "index": 15,
          "texCoord": 0
        },
        "roughnessFactor": 1
      }
    },
    {
      "doubleSided": true,
      "emissiveFactor": [
        0,
        0,
        0
      ],
      "name": "Front_Bars",
      "normalTexture": {
        "index": 1,
        "scale": 1,
        "texCoord": 0
      },
      "occlusionTexture": {
        "index": 0,
        "strength": 1,
        "texCoord": 0
      },
      "pbrMetallicRoughness": {
        "baseColorFactor": [
          1,
          1,
          1,
          1
        ],
        "baseColorTexture": {
          "index": 2,
          "texCoord": 0
        },
        "metallicFactor": 1,
        "metallicRoughnessTexture": {
          "index": 0,
          "texCoord": 0
        },
        "roughnessFactor": 1
      }
    },
    {
      "doubleSided": true,
      "emissiveFactor": [
        0,
        0,
        0
      ],
      "name": "Window_Bars",
      "normalTexture": {
        "index": 10,
        "scale": 1,
        "texCoord": 0
      },
      "occlusionTexture": {
        "index": 9,
        "strength": 1,
        "texCoord": 0
      },
      "pbrMetallicRoughness": {
        "baseColorFactor": [
          1,
          1,
          1,
          1
        ],
        "baseColorTexture": {
          "index": 11,
          "texCoord": 0
        },
        "metallicFactor": 1,
        "metallicRoughnessTexture": {
          "index": 9,
          "texCoord": 0
        },
        "roughnessFactor": 1
      }
    },
    {
      "doubleSided": true,
      "emissiveFactor": [
        0,
        0,
        0
      ],
      "name": "wALLS",
      "normalTexture": {
        "index": 13,
        "scale": 1,
        "texCoord": 0
      },
      "occlusionTexture": {
        "index": 12,
        "strength": 1,
        "texCoord": 0
      },
      "pbrMetallicRoughness": {
        "baseColorFactor": [
          1,
          1,
          1,
          1
        ],
        "baseColorTexture": {
          "index": 14,
          "texCoord": 0
        },
        "metallicFactor": 1,
        "metallicRoughnessTexture": {
          "index": 12,
          "texCoord": 0
        },
        "roughnessFactor": 1
      }
    },
    {
      "doubleSided": true,
      "emissiveFactor": [
        0,
        0,
        0
      ],
      "name": "Entrance",
      "normalTexture": {
        "index": 4,
        "scale": 1,
        "texCoord": 0
      },
      "occlusionTexture": {
        "index": 3,
        "strength": 1,
        "texCoord": 0
      },
      "pbrMetallicRoughness": {
        "baseColorFactor": [
          1,
          1,
          1,
          1
        ],
        "baseColorTexture": {
          "index": 5,
          "texCoord": 0
        },
        "metallicFactor": 1,
        "metallicRoughnessTexture": {
          "index": 3,
          "texCoord": 0
        },
        "roughnessFactor": 1
      }
    },
    {
      "doubleSided": true,
      "emissiveFactor": [
        0,
        0,
        0
      ],
      "name": "Chains",
      "normalTexture": {
        "index": 7,
        "scale": 1,
        "texCoord": 0
      },
      "occlusionTexture": {
        "index": 6,
        "strength": 1,
        "texCoord": 0
      },
      "pbrMetallicRoughness": {
        "baseColorFactor": [
          1,
          1,
          1,
          1
        ],
        "baseColorTexture": {
          "index": 8,
          "texCoord": 0
        },
        "metallicFactor": 1,
        "metallicRoughnessTexture": {
          "index": 6,
          "texCoord": 0
        },
        "roughnessFactor": 1
      }
    },
    {
      "doubleSided": true,
      "emissiveFactor": [
        0,
        0,
        0
      ],
      "name": "Door",
      "normalTexture": {
        "index": 19,
        "scale": 0.64195884150000004,
        "texCoord": 0
      },
      "occlusionTexture": {
        "index": 18,
        "strength": 1,
        "texCoord": 0
      },
      "pbrMetallicRoughness": {
        "baseColorFactor": [
          1,
          1,
          1,
          1
        ],
        "baseColorTexture": {
          "index": 20,
          "texCoord": 0
        },
        "metallicFactor": 1,
        "metallicRoughnessTexture": {
          "index": 18,
          "texCoord": 0
        },
        "roughnessFactor": 1
      }
    }
  ],
  "meshes": [
    {
      "name": "defaultMaterial",
      "primitives": [
        {
          "attributes": {
            "NORMAL": 1,
            "POSITION": 0,
            "TANGENT": 2,
            "TEXCOORD_0": 3
          },
          "indices": 4,
          "material": 6,
          "mode": 4
        }
      ]
    },
    {
      "name": "defaultMaterial",
      "primitives": [
        {
          "attributes": {
            "NORMAL": 6,
            "POSITION": 5,
            "TANGENT": 7,
            "TEXCOORD_0": 8
          },
          "indices": 9,
          "material": 6,
          "mode": 4
        }
      ]
    },
    {
      "name": "defaultMaterial",
      "primitives": [
        {
          "attributes": {
            "NORMAL": 11,
            "POSITION": 10,
            "TANGENT": 12,
            "TEXCOORD_0": 13
          },
          "indices": 14,
          "material": 5,
          "mode": 4
        }
      ]
    },
    {
      "name": "defaultMaterial",
      "primitives": [
        {
          "attributes": {
            "NORMAL": 16,
            "POSITION": 15,
            "TANGENT": 17,
            "TEXCOORD_0": 18
          },
          "indices": 19,
          "material": 4,
          "mode": 4
        }
      ]
    },
    {
      "name": "defaultMaterial",
      "primitives": [
        {
          "attributes": {
            "NORMAL": 21,
            "POSITION": 20,
            "TANGENT": 22,
            "TEXCOORD_0": 23
          },
          "indices": 24,
          "material": 3,
          "mode": 4
        }
      ]
    },
    {
      "name": "defaultMaterial",
      "primitives": [
        {
          "attributes": {
            "NORMAL": 26,
            "POSITION": 25,
            "TANGENT": 27,
            "TEXCOORD_0": 28
          },
          "indices": 29,
          "material": 2,
          "mode": 4
        }
      ]
    },
    {
      "name": "defaultMaterial",
      "primitives": [
        {
          "attributes": {
            "NORMAL": 31,
            "POSITION": 30,
            "TANGENT": 32,
            "TEXCOORD_0": 33
          },
          "indices": 34,
          "material": 1,
          "mode": 4
        }
      ]
    },
    {
      "name": "defaultMaterial",
      "primitives": [
        {
          "attributes": {
            "NORMAL": 36,
            "POSITION": 35,
            "TANGENT": 37,
            "TEXCOORD_0": 38
          },
          "indices": 39,
          "material": 0,
          "mode": 4
        }
      ]
    }
  ],
  "nodes": [
    {
      "children": [
        1
      ],
      "name": "RootNode (gltf orientation matrix)",
      "rotation": [
        -0.70710678118654746,
        -0,
        -0,
        0.70710678118654757
      ]
    },
    {
      "children": [
        2
      ],
      "name": "RootNode (model correction matrix)"
    },
    {
      "children": [
        3,
        5,
        7,
        9,
        11,
        13,
        15,
        17
      ],
      "matrix": [
        1,
        0,
        0,
        0,
        0,
        -4.3711390063094768e-08,
        0.999999999999999,
        0,
        0,
        -0.999999999999999,
        -4.3711390063094768e-08,
        0,
        0,
        0,
        0,
        1
      ],
      "name": "Collada visual scene group"
    },
    {
      "children": [
        4
      ],
      "name": "pCylinder45"
    },
    {
      "mesh": 0,
      "name": "defaultMaterial"
    },
    {
      "children": [
        6
      ],
      "name": "pCylinder44"
    },
    {
      "mesh": 1,
      "name": "defaultMaterial"
    },
    {
      "children": [
        8
      ],
      "name": "Chainsmeshthing"
    },
    {
      "mesh": 2,
      "name": "defaultMaterial"
    },
    {
      "children": [
        10
      ],
      "name": "Gate1"
    },
    {
      "mesh": 3,
      "name": "defaultMaterial"
    },
    {
      "children": [
        12
      ],
      "name": "Dungeon_Wallz"
    },
    {
      "mesh": 4,
      "name": "defaultMaterial"
    },
    {
      "children": [
        14
      ],
      "name": "polySurface55"
    },
    {
      "mesh": 5,
      "name": "defaultMaterial"
    },
    {
      "children": [
        16
      ],
      "name": "Bars"
    },
    {
      "mesh": 6,
      "name": "defaultMaterial"
    },
    {
      "children": [
        18
      ],
      "name": "Dungeon_Floor"
    },
    {
      "mesh": 7,
      "name": "defaultMaterial"
    }
  ],
  "samplers": [
    {
      "magFilter": 9729,
      "minFilter": 9987,
      "wrapS": 10497,
      "wrapT": 10497
    }
  ],
  "scene": 0,
  "scenes": [
    {
      "name": "OSG_Scene",
      "nodes": [
        0
      ]
    }
  ],
  "textures": [
    {
      "sampler": 0,
      "source": 0
    },
    {
      "sampler": 0,
      "source": 1
    },
    {
      "sampler": 0,
      "source": 2
    },
    {
      "sampler": 0,
      "source": 3
    },
    {
      "sampler": 0,
      "source": 4
    },
    {
      "sampler": 0,
      "source": 5
    },
    {
      "sampler": 0,
      "source": 6
    },
    {
      "sampler": 0,
      "source": 7
    },
    {
      "sampler": 0,
      "source": 8
    },
    {
      "sampler": 0,
      "source": 9
    },
    {
      "sampler": 0,
      "source": 10
    },
    {
      "sampler": 0,
      "source": 11
    },
    {
      "sampler": 0,
      "source": 12
    },
    {
      "sampler": 0,
      "source": 13
    },
    {
      "sampler": 0,
      "source": 14
    },
    {
      "sampler": 0,
      "source": 15
    },
    {
      "sampler": 0,
      "source": 16
    },
    {
      "sampler": 0,
      "source": 17
    },
    {
      "sampler": 0,
      "source": 18
    },
    {
      "sampler": 0,
      "source": 19
    },
    {
      "sampler": 0,
      "source": 20
    }
  ]
}

