{
  "accessors": [
    {
      "bufferView": 2,
      "componentType": 5126,
      "count": 47480,
      "max": [
        27.392446517944336,
        9.9725360870361328,
        23.435722351074219
      ],
      "min": [
        -24.004972457885742,
        0.016935179010033607,
        -22.981050491333008
      ],
      "type": "VEC3"
    },
    {
      "bufferView": 2,
      "byteOffset": 569760,
      "componentType": 5126,
      "count": 47480,
      "max": [
        0.99995267391204834,
        0.9995078444480896,
        0.99998921155929565
      ],
      "min": [
        -0.9999319314956665,
        -0.0086326347663998604,
        -0.99997216463088989
      ],
      "type": "VEC3"
    },
    {
      "bufferView": 3,
      "componentType": 5126,
      "count": 47480,
      "max": [
        0.99999022483825684,
        0.88823878765106201,
        0.99998307228088379,
        1
      ],
      "min": [
        -0.99999696016311646,
        -0.90166985988616943,
        -1,
        -1
      ],
      "type": "VEC4"
    },
    {
      "bufferView": 3,
      "byteOffset": 759680,
      "componentType": 5126,
      "count": 47480,
      "max": [
        1,
        1,
        1,
        1
      ],
      "min": [
        1,
        1,
        1,
        1
      ],
      "type": "VEC4"
    },
    {
      "bufferView": 1,
      "componentType": 5126,
      "count": 47480,
      "max": [
        0.99631351232528687,
        2.3715534210205078
      ],
      "min": [
        0.0074286162853240967,
        -1.4220389127731323
      ],
      "type": "VEC2"
    },
    {
      "bufferView": 1,
      "byteOffset": 379840,
      "componentType": 5126,
      "count": 47480,
      "max": [
        0.99631351232528687,
        2.3715534210205078
      ],
      "min": [
        0.0074286162853240967,
        -1.4220389127731323
      ],
      "type": "VEC2"
    },
    {
      "bufferView": 0,
      "componentType": 5125,
      "count": 133200,
      "max": [
        47479
      ],
      "min": [
        0
      ],
      "type": "SCALAR"
    },
    {
      "bufferView": 2,
      "byteOffset": 1139520,
      "componentType": 5126,
      "count": 94,
      "max": [
        27.16020393371582,
        1.8781054019927979,
        27.160207748413086
      ],
      "min": [
        -27.161746978759766,
        -0.51159387826919556,
        -27.160207748413086
      ],
      "type": "VEC3"
    },
    {
      "bufferView": 2,
      "byteOffset": 1140648,
      "componentType": 5126,
      "count": 94,
      "max": [
        0.091209650039672852,
        1,
        0.088487192988395691
      ],
      "min": [
        -0.092930875718593597,
        0.99365741014480591,
        -0.09122120589017868
      ],
      "type": "VEC3"
    },
    {
      "bufferView": 3,
      "byteOffset": 1519360,
      "componentType": 5126,
      "count": 94,
      "max": [
        1,
        0.092914335429668427,
        0.035614121705293655,
        -1
      ],
      "min": [
        0.99566888809204102,
        -0.09126705676317215,
        -0.050247065722942352,
        -1
      ],
      "type": "VEC4"
    },
    {
      "bufferView": 1,
      "byteOffset": 759680,
      "componentType": 5126,
      "count": 94,
      "max": [
        4.9888672828674316,
        4.9888672828674316
      ],
      "min": [
        0,
        0
      ],
      "type": "VEC2"
    },
    {
      "bufferView": 0,
      "byteOffset": 532800,
      "componentType": 5125,
      "count": 432,
      "max": [
        93
      ],
      "min": [
        0
      ],
      "type": "SCALAR"
    },
    {
      "bufferView": 2,
      "byteOffset": 1141776,
      "componentType": 5126,
      "count": 439,
      "max": [
        70.638870239257812,
        70.638870239257812,
        70.638870239257812
      ],
      "min": [
        -70.638870239257812,
        -70.638870239257812,
        -70.638870239257812
      ],
      "type": "VEC3"
    },
    {
      "bufferView": 2,
      "byteOffset": 1147044,
      "componentType": 5126,
      "count": 439,
      "max": [
        1,
        1,
        1
      ],
      "min": [
        -1,
        -1,
        -1
      ],
      "type": "VEC3"
    },
    {
      "bufferView": 3,
      "byteOffset": 1520864,
      "componentType": 5126,
      "count": 439,
      "max": [
        1,
        0.078700684010982513,
        1,
        1
      ],
      "min": [
        -1,
        -0.078700676560401917,
        -1,
        1
      ],
      "type": "VEC4"
    },
    {
      "bufferView": 1,
      "byteOffset": 760432,
      "componentType": 5126,
      "count": 439,
      "max": [
        1,
        1
      ],
      "min": [
        0,
        0
      ],
      "type": "VEC2"
    },
    {
      "bufferView": 0,
      "byteOffset": 534528,
      "componentType": 5125,
      "count": 2280,
      "max": [
        438
      ],
      "min": [
        0
      ],
      "type": "SCALAR"
    }
  ],
  "asset": {
    "extras": {
      "author": "fangzhangmnm (https://sketchfab.com/fangzhangmnm)",
      "license": "CC-BY-4.0 (http://creativecommons.org/licenses/by/4.0/)",
      "source": "https://sketchfab.com/3d-models/pine-forest-ece69535f7584e099488f65f2072264e",
      "title": "Pine Forest"
    },
    "generator": "Sketchfab-6.29.0",
    "version": "2.0"
  },
  "bufferViews": [
    {
      "buffer": 0,
      "byteLength": 543648,
      "byteOffset": 0,
      "name": "floatBufferViews",
      "target": 34963
    },
    {
      "buffer": 0,
      "byteLength": 763944,
      "byteOffset": 543648,
      "byteStride": 8,
      "name": "floatBufferViews",
      "target": 34962
    },
    {
      "buffer": 0,
      "byteLength": 1152312,
      "byteOffset": 1307592,
      "byteStride": 12,
      "name": "floatBufferViews",
      "target": 34962
    },
    {
      "buffer": 0,
      "byteLength": 1527888,
      "byteOffset": 2459904,
      "byteStride": 16,
      "name": "floatBufferViews",
      "target": 34962
    }
  ],
  "buffers": [
    {
      "byteLength": 3987792,
      "uri": "scene.bin"
    }
  ],
  "images": [
    {
      "uri": "textures/pine_baseColor.png"
    },
    {
      "uri": "textures/pine_normal.jpeg"
    },
    {
      "uri": "textures/mat1_baseColor.jpeg"
    },
    {
      "uri": "textures/mat2_baseColor.jpeg"
    }
  ],
  "materials": [
    {
      "alphaCutoff": 0.8683333425810843,
      "alphaMode": "MASK",
      "doubleSided": true,
      "name": "pine",
      "normalTexture": {
        "index": 1,
        "scale": 1,
        "texCoord": 0
      },
      "pbrMetallicRoughness": {
        "baseColorFactor": [
          1,
          1,
          1,
          1
        ],
        "baseColorTexture": {
          "index": 0,
          "texCoord": 0
        },
        "metallicFactor": 0.91075758500532666,
        "roughnessFactor": 0.95318182742956914
      }
    },
    {
      "doubleSided": false,
      "emissiveFactor": [
        0,
        0,
        0
      ],
      "name": "mat1",
      "pbrMetallicRoughness": {
        "baseColorFactor": [
          1,
          1,
          1,
          1
        ],
        "baseColorTexture": {
          "index": 2,
          "texCoord": 0
        },
        "metallicFactor": 1,
        "roughnessFactor": 1
      }
    },
    {
      "doubleSided": false,
      "emissiveFactor": [
        1,
        1,
        1
      ],
      "emissiveTexture": {
        "index": 4,
        "texCoord": 0
      },
      "name": "mat2",
      "pbrMetallicRoughness": {
        "baseColorFactor": [
          0,
          0,
          0,
          1
        ],
        "baseColorTexture": {
          "index": 3,
          "texCoord": 0
        },
        "metallicFactor": 0,
        "roughnessFactor": 0.90000000000000002
      }
    }
  ],
  "meshes": [
    {
      "primitives": [
        {
          "attributes": {
            "COLOR_0": 3,
            "NORMAL": 1,
            "POSITION": 0,
            "TANGENT": 2,
            "TEXCOORD_0": 4,
            "TEXCOORD_1": 5
          },
          "indices": 6,
          "material": 0,
          "mode": 4
        }
      ]
    },
    {
      "primitives": [
        {
          "attributes": {
            "NORMAL": 8,
            "POSITION": 7,
            "TANGENT": 9,
            "TEXCOORD_0": 10
          },
          "indices": 11,
          "material": 1,
          "mode": 4
        }
      ]
    },
    {
      "primitives": [
        {
          "attributes": {
            "NORMAL": 13,
            "POSITION": 12,
            "TANGENT": 14,
            "TEXCOORD_0": 15
          },
          "indices": 16,
          "material": 2,
          "mode": 4
        }
      ]
    }
  ],
  "nodes": [
    {
      "children": [
        1
      ],
      "name": "RootNode (gltf orientation matrix)",
      "rotation": [
        -0.70710678118654746,
        -0,
        -0,
        0.70710678118654757
      ]
    },
    {
      "children": [
        2
      ],
      "name": "RootNode (model correction matrix)"
    },
    {
      "children": [
        3
      ],
      "name": "root"
    },
    {
      "children": [
        4,
        6,
        8
      ],
      "matrix": [
        1,
        0,
        0,
        0,
        0,
        2.2204460492503131e-16,
        1,
        0,
        0,
        -1,
        2.2204460492503131e-16,
        0,
        0,
        0,
        0,
        1
      ],
      "name": "GLTF_SceneRootNode"
    },
    {
      "children": [
        5
      ],
      "name": "pine1_0"
    },
    {
      "mesh": 0,
      "name": ""
    },
    {
      "children": [
        7
      ],
      "name": "obj1_1"
    },
    {
      "mesh": 1,
      "name": ""
    },
    {
      "children": [
        9
      ],
      "name": "obj2_2"
    },
    {
      "mesh": 2,
      "name": ""
    }
  ],
  "samplers": [
    {
      "magFilter": 9729,
      "minFilter": 9729,
      "wrapS": 10497,
      "wrapT": 10497
    },
    {
      "magFilter": 9729,
      "minFilter": 9987,
      "wrapS": 10497,
      "wrapT": 10497
    }
  ],
  "scene": 0,
  "scenes": [
    {
      "name": "OSG_Scene",
      "nodes": [
        0
      ]
    }
  ],
  "textures": [
    {
      "sampler": 0,
      "source": 0
    },
    {
      "sampler": 0,
      "source": 1
    },
    {
      "sampler": 0,
      "source": 2
    },
    {
      "sampler": 0,
      "source": 3
    },
    {
      "sampler": 1,
      "source": 3
    }
  ]
}

