{
    "asset" : {
        "generator" : "Khronos glTF Blender I/O v1.2.75",
        "version" : "2.0"
    },
    "scene" : 0,
    "scenes" : [
        {
            "name" : "Scene",
            "nodes" : [
                8,
                9,
                10
            ]
        }
    ],
    "nodes" : [
        {
            "name" : "joint5",
            "rotation" : [
                -0.7071068286895752,
                2.6832637887029757e-19,
                3.44991080704149e-19,
                0.7071068286895752
            ],
            "translation" : [
                3.725290298461914e-09,
                11.180345571571031,
                0
            ]
        },
        {
            "children" : [
                0
            ],
            "name" : "joint4",
            "rotation" : [
                -0.25791117548942566,
                2.6109768441529013e-05,
                -9.750293975230306e-05,
                0.9661686420440674
            ],
            "scale" : [
                1,
                0.9999999403953552,
                0.9999998807907104
            ],
            "translation" : [
                -1.817199057896346e-09,
                21.53630828857422,
                -5.2944842536817305e-06
            ]
        },
        {
            "children" : [
                1
            ],
            "name" : "joint3",
            "rotation" : [
                -0.1853845715522766,
                0.6824877262115479,
                0.18496225774288177,
                0.6823723316192627
            ],
            "scale" : [
                1.0000001192092896,
                1,
                0.9999998807907104
            ],
            "translation" : [
                -1.2685230785791646e-06,
                18.02776527404785,
                6.214304182350361e-09
            ]
        },
        {
            "children" : [
                2
            ],
            "name" : "joint2",
            "rotation" : [
                7.202105189207941e-05,
                0.00015528210496995598,
                0.360514372587204,
                0.9327536821365356
            ],
            "scale" : [
                0.9999998211860657,
                0.9999998211860657,
                0.9999999403953552
            ],
            "translation" : [
                -5.122696933312909e-08,
                17.023893356323242,
                -5.849172812766312e-10
            ]
        },
        {
            "children" : [
                3
            ],
            "name" : "joint1",
            "rotation" : [
                0.3538517951965332,
                0.6123166680335999,
                0.35375070571899414,
                0.6121418476104736
            ],
            "scale" : [
                0.9999999403953552,
                0.9999998211860657,
                0.9999993443489075
            ],
            "translation" : [
                -6.852157730108388e-15,
                3,
                -31
            ]
        },
        {
            "mesh" : 0,
            "name" : "Box01_noesis_meshnode_0000",
            "skin" : 0
        },
        {
            "mesh" : 1,
            "name" : "Cylinder01_noesis_meshnode_0002",
            "skin" : 0
        },
        {
            "mesh" : 2,
            "name" : "Sphere01_noesis_meshnode_0001",
            "skin" : 0
        },
        {
            "children" : [
                5,
                6,
                7,
                4
            ],
            "name" : "Armature"
        },
        {
            "name" : "Light",
            "rotation" : [
                0.16907575726509094,
                0.7558803558349609,
                -0.27217137813568115,
                0.570947527885437
            ],
            "translation" : [
                4.076245307922363,
                5.903861999511719,
                -1.0054539442062378
            ]
        },
        {
            "name" : "Camera",
            "rotation" : [
                0.483536034822464,
                0.33687159419059753,
                -0.20870360732078552,
                0.7804827094078064
            ],
            "translation" : [
                7.358891487121582,
                4.958309173583984,
                6.925790786743164
            ]
        }
    ],
    "animations" : [
        {
            "channels" : [
                {
                    "sampler" : 0,
                    "target" : {
                        "node" : 4,
                        "path" : "translation"
                    }
                },
                {
                    "sampler" : 1,
                    "target" : {
                        "node" : 4,
                        "path" : "rotation"
                    }
                },
                {
                    "sampler" : 2,
                    "target" : {
                        "node" : 4,
                        "path" : "scale"
                    }
                },
                {
                    "sampler" : 3,
                    "target" : {
                        "node" : 3,
                        "path" : "translation"
                    }
                },
                {
                    "sampler" : 4,
                    "target" : {
                        "node" : 3,
                        "path" : "rotation"
                    }
                },
                {
                    "sampler" : 5,
                    "target" : {
                        "node" : 3,
                        "path" : "scale"
                    }
                },
                {
                    "sampler" : 6,
                    "target" : {
                        "node" : 2,
                        "path" : "translation"
                    }
                },
                {
                    "sampler" : 7,
                    "target" : {
                        "node" : 2,
                        "path" : "rotation"
                    }
                },
                {
                    "sampler" : 8,
                    "target" : {
                        "node" : 2,
                        "path" : "scale"
                    }
                },
                {
                    "sampler" : 9,
                    "target" : {
                        "node" : 1,
                        "path" : "translation"
                    }
                },
                {
                    "sampler" : 10,
                    "target" : {
                        "node" : 1,
                        "path" : "rotation"
                    }
                },
                {
                    "sampler" : 11,
                    "target" : {
                        "node" : 1,
                        "path" : "scale"
                    }
                }
            ],
            "name" : "Animation",
            "samplers" : [
                {
                    "input" : 19,
                    "interpolation" : "LINEAR",
                    "output" : 20
                },
                {
                    "input" : 19,
                    "interpolation" : "LINEAR",
                    "output" : 21
                },
                {
                    "input" : 19,
                    "interpolation" : "LINEAR",
                    "output" : 22
                },
                {
                    "input" : 19,
                    "interpolation" : "LINEAR",
                    "output" : 23
                },
                {
                    "input" : 19,
                    "interpolation" : "LINEAR",
                    "output" : 24
                },
                {
                    "input" : 19,
                    "interpolation" : "LINEAR",
                    "output" : 25
                },
                {
                    "input" : 19,
                    "interpolation" : "LINEAR",
                    "output" : 26
                },
                {
                    "input" : 19,
                    "interpolation" : "LINEAR",
                    "output" : 27
                },
                {
                    "input" : 19,
                    "interpolation" : "LINEAR",
                    "output" : 28
                },
                {
                    "input" : 19,
                    "interpolation" : "LINEAR",
                    "output" : 29
                },
                {
                    "input" : 19,
                    "interpolation" : "LINEAR",
                    "output" : 30
                },
                {
                    "input" : 19,
                    "interpolation" : "LINEAR",
                    "output" : 31
                }
            ]
        }
    ],
    "materials" : [
        {
            "emissiveFactor" : [
                0,
                0,
                0
            ],
            "name" : "Default",
            "pbrMetallicRoughness" : {
                "baseColorFactor" : [
                    1,
                    1,
                    1,
                    1
                ],
                "metallicFactor" : 0,
                "roughnessFactor" : 1
            }
        }
    ],
    "meshes" : [
        {
            "name" : "Box01",
            "primitives" : [
                {
                    "attributes" : {
                        "POSITION" : 0,
                        "NORMAL" : 1,
                        "TEXCOORD_0" : 2,
                        "JOINTS_0" : 3,
                        "WEIGHTS_0" : 4
                    },
                    "indices" : 5,
                    "material" : 0
                }
            ]
        },
        {
            "name" : "Cylinder01",
            "primitives" : [
                {
                    "attributes" : {
                        "POSITION" : 7,
                        "NORMAL" : 8,
                        "TEXCOORD_0" : 9,
                        "JOINTS_0" : 10,
                        "WEIGHTS_0" : 11
                    },
                    "indices" : 12,
                    "material" : 0
                }
            ]
        },
        {
            "name" : "Sphere01",
            "primitives" : [
                {
                    "attributes" : {
                        "POSITION" : 13,
                        "NORMAL" : 14,
                        "TEXCOORD_0" : 15,
                        "JOINTS_0" : 16,
                        "WEIGHTS_0" : 17
                    },
                    "indices" : 18,
                    "material" : 0
                }
            ]
        }
    ],
    "skins" : [
        {
            "inverseBindMatrices" : 6,
            "joints" : [
                4,
                3,
                2,
                1
            ],
            "name" : "Armature"
        }
    ],
    "accessors" : [
        {
            "bufferView" : 0,
            "componentType" : 5126,
            "count" : 26,
            "max" : [
                5.124999523162842,
                15.500000953674316,
                -10.499999046325684
            ],
            "min" : [
                -5.124999523162842,
                8.000000953674316,
                -20.75
            ],
            "type" : "VEC3"
        },
        {
            "bufferView" : 1,
            "componentType" : 5126,
            "count" : 26,
            "type" : "VEC3"
        },
        {
            "bufferView" : 2,
            "componentType" : 5126,
            "count" : 26,
            "type" : "VEC2"
        },
        {
            "bufferView" : 3,
            "componentType" : 5123,
            "count" : 26,
            "type" : "VEC4"
        },
        {
            "bufferView" : 4,
            "componentType" : 5126,
            "count" : 26,
            "type" : "VEC4"
        },
        {
            "bufferView" : 5,
            "componentType" : 5123,
            "count" : 36,
            "type" : "SCALAR"
        },
        {
            "bufferView" : 6,
            "componentType" : 5126,
            "count" : 4,
            "type" : "MAT4"
        },
        {
            "bufferView" : 7,
            "componentType" : 5126,
            "count" : 144,
            "max" : [
                6.500000953674316,
                25.75000762939453,
                27.250003814697266
            ],
            "min" : [
                -6.500000953674316,
                19.000003814697266,
                14.250000953674316
            ],
            "type" : "VEC3"
        },
        {
            "bufferView" : 8,
            "componentType" : 5126,
            "count" : 144,
            "type" : "VEC3"
        },
        {
            "bufferView" : 9,
            "componentType" : 5126,
            "count" : 144,
            "type" : "VEC2"
        },
        {
            "bufferView" : 10,
            "componentType" : 5123,
            "count" : 144,
            "type" : "VEC4"
        },
        {
            "bufferView" : 11,
            "componentType" : 5126,
            "count" : 144,
            "type" : "VEC4"
        },
        {
            "bufferView" : 12,
            "componentType" : 5123,
            "count" : 504,
            "type" : "SCALAR"
        },
        {
            "bufferView" : 13,
            "componentType" : 5126,
            "count" : 89,
            "max" : [
                5.750000476837158,
                28,
                4.5
            ],
            "min" : [
                -5.750000476837158,
                16.5,
                -7.000001430511475
            ],
            "type" : "VEC3"
        },
        {
            "bufferView" : 14,
            "componentType" : 5126,
            "count" : 89,
            "type" : "VEC3"
        },
        {
            "bufferView" : 15,
            "componentType" : 5126,
            "count" : 89,
            "type" : "VEC2"
        },
        {
            "bufferView" : 16,
            "componentType" : 5123,
            "count" : 89,
            "type" : "VEC4"
        },
        {
            "bufferView" : 17,
            "componentType" : 5126,
            "count" : 89,
            "type" : "VEC4"
        },
        {
            "bufferView" : 18,
            "componentType" : 5123,
            "count" : 360,
            "type" : "SCALAR"
        },
        {
            "bufferView" : 19,
            "componentType" : 5126,
            "count" : 23,
            "max" : [
                0.9166666666666666
            ],
            "min" : [
                0
            ],
            "type" : "SCALAR"
        },
        {
            "bufferView" : 20,
            "componentType" : 5126,
            "count" : 23,
            "type" : "VEC3"
        },
        {
            "bufferView" : 21,
            "componentType" : 5126,
            "count" : 23,
            "type" : "VEC4"
        },
        {
            "bufferView" : 22,
            "componentType" : 5126,
            "count" : 23,
            "type" : "VEC3"
        },
        {
            "bufferView" : 23,
            "componentType" : 5126,
            "count" : 23,
            "type" : "VEC3"
        },
        {
            "bufferView" : 24,
            "componentType" : 5126,
            "count" : 23,
            "type" : "VEC4"
        },
        {
            "bufferView" : 25,
            "componentType" : 5126,
            "count" : 23,
            "type" : "VEC3"
        },
        {
            "bufferView" : 26,
            "componentType" : 5126,
            "count" : 23,
            "type" : "VEC3"
        },
        {
            "bufferView" : 27,
            "componentType" : 5126,
            "count" : 23,
            "type" : "VEC4"
        },
        {
            "bufferView" : 28,
            "componentType" : 5126,
            "count" : 23,
            "type" : "VEC3"
        },
        {
            "bufferView" : 29,
            "componentType" : 5126,
            "count" : 23,
            "type" : "VEC3"
        },
        {
            "bufferView" : 30,
            "componentType" : 5126,
            "count" : 23,
            "type" : "VEC4"
        },
        {
            "bufferView" : 31,
            "componentType" : 5126,
            "count" : 23,
            "type" : "VEC3"
        }
    ],
    "bufferViews" : [
        {
            "buffer" : 0,
            "byteLength" : 312,
            "byteOffset" : 0
        },
        {
            "buffer" : 0,
            "byteLength" : 312,
            "byteOffset" : 312
        },
        {
            "buffer" : 0,
            "byteLength" : 208,
            "byteOffset" : 624
        },
        {
            "buffer" : 0,
            "byteLength" : 208,
            "byteOffset" : 832
        },
        {
            "buffer" : 0,
            "byteLength" : 416,
            "byteOffset" : 1040
        },
        {
            "buffer" : 0,
            "byteLength" : 72,
            "byteOffset" : 1456
        },
        {
            "buffer" : 0,
            "byteLength" : 256,
            "byteOffset" : 1528
        },
        {
            "buffer" : 0,
            "byteLength" : 1728,
            "byteOffset" : 1784
        },
        {
            "buffer" : 0,
            "byteLength" : 1728,
            "byteOffset" : 3512
        },
        {
            "buffer" : 0,
            "byteLength" : 1152,
            "byteOffset" : 5240
        },
        {
            "buffer" : 0,
            "byteLength" : 1152,
            "byteOffset" : 6392
        },
        {
            "buffer" : 0,
            "byteLength" : 2304,
            "byteOffset" : 7544
        },
        {
            "buffer" : 0,
            "byteLength" : 1008,
            "byteOffset" : 9848
        },
        {
            "buffer" : 0,
            "byteLength" : 1068,
            "byteOffset" : 10856
        },
        {
            "buffer" : 0,
            "byteLength" : 1068,
            "byteOffset" : 11924
        },
        {
            "buffer" : 0,
            "byteLength" : 712,
            "byteOffset" : 12992
        },
        {
            "buffer" : 0,
            "byteLength" : 712,
            "byteOffset" : 13704
        },
        {
            "buffer" : 0,
            "byteLength" : 1424,
            "byteOffset" : 14416
        },
        {
            "buffer" : 0,
            "byteLength" : 720,
            "byteOffset" : 15840
        },
        {
            "buffer" : 0,
            "byteLength" : 92,
            "byteOffset" : 16560
        },
        {
            "buffer" : 0,
            "byteLength" : 276,
            "byteOffset" : 16652
        },
        {
            "buffer" : 0,
            "byteLength" : 368,
            "byteOffset" : 16928
        },
        {
            "buffer" : 0,
            "byteLength" : 276,
            "byteOffset" : 17296
        },
        {
            "buffer" : 0,
            "byteLength" : 276,
            "byteOffset" : 17572
        },
        {
            "buffer" : 0,
            "byteLength" : 368,
            "byteOffset" : 17848
        },
        {
            "buffer" : 0,
            "byteLength" : 276,
            "byteOffset" : 18216
        },
        {
            "buffer" : 0,
            "byteLength" : 276,
            "byteOffset" : 18492
        },
        {
            "buffer" : 0,
            "byteLength" : 368,
            "byteOffset" : 18768
        },
        {
            "buffer" : 0,
            "byteLength" : 276,
            "byteOffset" : 19136
        },
        {
            "buffer" : 0,
            "byteLength" : 276,
            "byteOffset" : 19412
        },
        {
            "buffer" : 0,
            "byteLength" : 368,
            "byteOffset" : 19688
        },
        {
            "buffer" : 0,
            "byteLength" : 276,
            "byteOffset" : 20056
        }
    ],
    "buffers" : [
        {
            "byteLength" : 20332,
            "uri" : "test2out2.bin"
        }
    ]
}
