{
    "asset" : {
        "generator" : "Khronos glTF Blender I/O v1.7.33",
        "version" : "2.0"
    },
    "scene" : 0,
    "scenes" : [
        {
            "name" : "Scene",
            "nodes" : [
                0,
                1,
                2,
                3,
                4,
                5,
                6
            ]
        }
    ],
    "nodes" : [
        {
            "mesh" : 0,
            "name" : "Cylinder",
            "translation" : [
                0.4841200113296509,
                -0.4437767565250397,
                0.448819637298584
            ]
        },
        {
            "mesh" : 1,
            "name" : "Sphere",
            "scale" : [
                0.32495546340942383,
                0.32495546340942383,
                0.32495546340942383
            ],
            "translation" : [
                0.04588767886161804,
                -0.6174098253250122,
                -0.3076179325580597
            ]
        },
        {
            "mesh" : 2,
            "name" : "Cube",
            "rotation" : [
                0,
                0.25496962666511536,
                0,
                0.9669490456581116
            ],
            "translation" : [
                -0.6094337701797485,
                -0.7585527300834656,
                0.3177037835121155
            ]
        },
        {
            "mesh" : 3,
            "name" : "wall.002",
            "translation" : [
                0,
                0.35043948888778687,
                0
            ]
        },
        {
            "mesh" : 4,
            "name" : "wall.003",
            "rotation" : [
                0,
                0,
                -0.7071067690849304,
                0.7071068286895752
            ],
            "translation" : [
                0,
                -1,
                0
            ]
        },
        {
            "mesh" : 5,
            "name" : "wall.001",
            "translation" : [
                1,
                0,
                0
            ]
        },
        {
            "mesh" : 6,
            "name" : "wall",
            "translation" : [
                -1,
                0,
                0
            ]
        }
    ],
    "materials" : [
        {
            "doubleSided" : true,
            "name" : "Material.004",
            "pbrMetallicRoughness" : {
                "baseColorFactor" : [
                    0.800000011920929,
                    0.800000011920929,
                    0.800000011920929,
                    1
                ],
                "metallicFactor" : 0,
                "roughnessFactor" : 0.5
            }
        },
        {
            "doubleSided" : true,
            "name" : "Material.005",
            "pbrMetallicRoughness" : {
                "baseColorFactor" : [
                    0.800000011920929,
                    0.800000011920929,
                    0.800000011920929,
                    1
                ],
                "metallicFactor" : 0,
                "roughnessFactor" : 0.5
            }
        },
        {
            "doubleSided" : true,
            "name" : "Material.006",
            "pbrMetallicRoughness" : {
                "baseColorFactor" : [
                    0.800000011920929,
                    0.800000011920929,
                    0.800000011920929,
                    1
                ],
                "metallicFactor" : 0,
                "roughnessFactor" : 0.5
            }
        },
        {
            "doubleSided" : true,
            "name" : "Material.003",
            "pbrMetallicRoughness" : {
                "baseColorFactor" : [
                    1,
                    1,
                    1,
                    1
                ],
                "metallicFactor" : 0,
                "roughnessFactor" : 0.5
            }
        },
        {
            "doubleSided" : true,
            "name" : "Material",
            "pbrMetallicRoughness" : {
                "baseColorFactor" : [
                    0.7793219685554504,
                    0.8000000715255737,
                    0.6283487677574158,
                    1
                ],
                "metallicFactor" : 0,
                "roughnessFactor" : 0.5
            }
        },
        {
            "doubleSided" : true,
            "name" : "Material.001",
            "pbrMetallicRoughness" : {
                "baseColorFactor" : [
                    0,
                    1,
                    0,
                    1
                ],
                "metallicFactor" : 0,
                "roughnessFactor" : 0.5
            }
        },
        {
            "doubleSided" : true,
            "name" : "Material.002",
            "pbrMetallicRoughness" : {
                "baseColorFactor" : [
                    1,
                    0,
                    0,
                    1
                ],
                "metallicFactor" : 0,
                "roughnessFactor" : 0.5
            }
        }
    ],
    "meshes" : [
        {
            "name" : "Cylinder",
            "primitives" : [
                {
                    "attributes" : {
                        "POSITION" : 0,
                        "NORMAL" : 1
                    },
                    "indices" : 2,
                    "material" : 0
                }
            ]
        },
        {
            "name" : "Sphere",
            "primitives" : [
                {
                    "attributes" : {
                        "POSITION" : 3,
                        "NORMAL" : 4
                    },
                    "indices" : 5,
                    "material" : 1
                }
            ]
        },
        {
            "name" : "Cube.006",
            "primitives" : [
                {
                    "attributes" : {
                        "POSITION" : 6,
                        "NORMAL" : 7
                    },
                    "indices" : 8,
                    "material" : 2
                }
            ]
        },
        {
            "name" : "Cube.005",
            "primitives" : [
                {
                    "attributes" : {
                        "POSITION" : 9,
                        "NORMAL" : 10
                    },
                    "indices" : 8,
                    "material" : 3
                }
            ]
        },
        {
            "name" : "Cube.002",
            "primitives" : [
                {
                    "attributes" : {
                        "POSITION" : 11,
                        "NORMAL" : 12
                    },
                    "indices" : 13,
                    "material" : 4
                }
            ]
        },
        {
            "name" : "Cube.001",
            "primitives" : [
                {
                    "attributes" : {
                        "POSITION" : 14,
                        "NORMAL" : 15
                    },
                    "indices" : 8,
                    "material" : 5
                }
            ]
        },
        {
            "name" : "Cube",
            "primitives" : [
                {
                    "attributes" : {
                        "POSITION" : 16,
                        "NORMAL" : 17
                    },
                    "indices" : 8,
                    "material" : 6
                }
            ]
        }
    ],
    "accessors" : [
        {
            "bufferView" : 0,
            "componentType" : 5126,
            "count" : 192,
            "max" : [
                0.30340635776519775,
                0.5021713972091675,
                0.30340611934661865
            ],
            "min" : [
                -0.3034062385559082,
                -0.5021713972091675,
                -0.3034065365791321
            ],
            "type" : "VEC3"
        },
        {
            "bufferView" : 1,
            "componentType" : 5126,
            "count" : 192,
            "type" : "VEC3"
        },
        {
            "bufferView" : 2,
            "componentType" : 5123,
            "count" : 372,
            "type" : "SCALAR"
        },
        {
            "bufferView" : 3,
            "componentType" : 5126,
            "count" : 1984,
            "max" : [
                1.0000003576278687,
                1,
                0.9999998211860657
            ],
            "min" : [
                -1,
                -1,
                -1.000000238418579
            ],
            "type" : "VEC3"
        },
        {
            "bufferView" : 4,
            "componentType" : 5126,
            "count" : 1984,
            "type" : "VEC3"
        },
        {
            "bufferView" : 5,
            "componentType" : 5123,
            "count" : 2880,
            "type" : "SCALAR"
        },
        {
            "bufferView" : 6,
            "componentType" : 5126,
            "count" : 24,
            "max" : [
                0.18929409980773926,
                0.18929409980773926,
                0.18929409980773926
            ],
            "min" : [
                -0.18929409980773926,
                -0.18929409980773926,
                -0.18929409980773926
            ],
            "type" : "VEC3"
        },
        {
            "bufferView" : 7,
            "componentType" : 5126,
            "count" : 24,
            "type" : "VEC3"
        },
        {
            "bufferView" : 8,
            "componentType" : 5123,
            "count" : 36,
            "type" : "SCALAR"
        },
        {
            "bufferView" : 9,
            "componentType" : 5126,
            "count" : 24,
            "max" : [
                0.4232935309410095,
                0.6343327760696411,
                0.4232935309410095
            ],
            "min" : [
                -0.4232935309410095,
                0.4594627618789673,
                -0.4232935309410095
            ],
            "type" : "VEC3"
        },
        {
            "bufferView" : 10,
            "componentType" : 5126,
            "count" : 24,
            "type" : "VEC3"
        },
        {
            "bufferView" : 11,
            "componentType" : 5126,
            "count" : 72,
            "max" : [
                0.050000011920928955,
                1.0000001192092896,
                1
            ],
            "min" : [
                -2.049999952316284,
                -1,
                -1.0500001907348633
            ],
            "type" : "VEC3"
        },
        {
            "bufferView" : 12,
            "componentType" : 5126,
            "count" : 72,
            "type" : "VEC3"
        },
        {
            "bufferView" : 13,
            "componentType" : 5123,
            "count" : 108,
            "type" : "SCALAR"
        },
        {
            "bufferView" : 14,
            "componentType" : 5126,
            "count" : 24,
            "max" : [
                0.050000011920928955,
                1,
                1
            ],
            "min" : [
                -0.050000011920928955,
                -1,
                -1
            ],
            "type" : "VEC3"
        },
        {
            "bufferView" : 15,
            "componentType" : 5126,
            "count" : 24,
            "type" : "VEC3"
        },
        {
            "bufferView" : 16,
            "componentType" : 5126,
            "count" : 24,
            "max" : [
                0.050000011920928955,
                1,
                1
            ],
            "min" : [
                -0.050000011920928955,
                -1,
                -1
            ],
            "type" : "VEC3"
        },
        {
            "bufferView" : 17,
            "componentType" : 5126,
            "count" : 24,
            "type" : "VEC3"
        }
    ],
    "bufferViews" : [
        {
            "buffer" : 0,
            "byteLength" : 2304,
            "byteOffset" : 0
        },
        {
            "buffer" : 0,
            "byteLength" : 2304,
            "byteOffset" : 2304
        },
        {
            "buffer" : 0,
            "byteLength" : 744,
            "byteOffset" : 4608
        },
        {
            "buffer" : 0,
            "byteLength" : 23808,
            "byteOffset" : 5352
        },
        {
            "buffer" : 0,
            "byteLength" : 23808,
            "byteOffset" : 29160
        },
        {
            "buffer" : 0,
            "byteLength" : 5760,
            "byteOffset" : 52968
        },
        {
            "buffer" : 0,
            "byteLength" : 288,
            "byteOffset" : 58728
        },
        {
            "buffer" : 0,
            "byteLength" : 288,
            "byteOffset" : 59016
        },
        {
            "buffer" : 0,
            "byteLength" : 72,
            "byteOffset" : 59304
        },
        {
            "buffer" : 0,
            "byteLength" : 288,
            "byteOffset" : 59376
        },
        {
            "buffer" : 0,
            "byteLength" : 288,
            "byteOffset" : 59664
        },
        {
            "buffer" : 0,
            "byteLength" : 864,
            "byteOffset" : 59952
        },
        {
            "buffer" : 0,
            "byteLength" : 864,
            "byteOffset" : 60816
        },
        {
            "buffer" : 0,
            "byteLength" : 216,
            "byteOffset" : 61680
        },
        {
            "buffer" : 0,
            "byteLength" : 288,
            "byteOffset" : 61896
        },
        {
            "buffer" : 0,
            "byteLength" : 288,
            "byteOffset" : 62184
        },
        {
            "buffer" : 0,
            "byteLength" : 288,
            "byteOffset" : 62472
        },
        {
            "buffer" : 0,
            "byteLength" : 288,
            "byteOffset" : 62760
        }
    ],
    "buffers" : [
        {
            "byteLength" : 63048,
            "uri" : "test.bin"
        }
    ]
}
